<svg id="visual" viewBox="0 0 900 600" width="900" height="600" xmlns="http://www.w3.org/2000/svg" xmlns:xlink="http://www.w3.org/1999/xlink" version="1.1"><rect x="0" y="0" width="900" height="600" fill="#e9f8f9"></rect><defs><linearGradient id="grad1_0" x1="33.3%" y1="0%" x2="100%" y2="100%"><stop offset="20%" stop-color="#345ab1" stop-opacity="1"></stop><stop offset="80%" stop-color="#345ab1" stop-opacity="1"></stop></linearGradient></defs><defs><linearGradient id="grad1_1" x1="33.3%" y1="0%" x2="100%" y2="100%"><stop offset="20%" stop-color="#345ab1" stop-opacity="1"></stop><stop offset="80%" stop-color="#67afd6" stop-opacity="1"></stop></linearGradient></defs><defs><linearGradient id="grad1_2" x1="33.3%" y1="0%" x2="100%" y2="100%"><stop offset="20%" stop-color="#e9f8f9" stop-opacity="1"></stop><stop offset="80%" stop-color="#67afd6" stop-opacity="1"></stop></linearGradient></defs><defs><linearGradient id="grad2_0" x1="0%" y1="0%" x2="66.7%" y2="100%"><stop offset="20%" stop-color="#345ab1" stop-opacity="1"></stop><stop offset="80%" stop-color="#345ab1" stop-opacity="1"></stop></linearGradient></defs><defs><linearGradient id="grad2_1" x1="0%" y1="0%" x2="66.7%" y2="100%"><stop offset="20%" stop-color="#67afd6" stop-opacity="1"></stop><stop offset="80%" stop-color="#345ab1" stop-opacity="1"></stop></linearGradient></defs><defs><linearGradient id="grad2_2" x1="0%" y1="0%" x2="66.7%" y2="100%"><stop offset="20%" stop-color="#67afd6" stop-opacity="1"></stop><stop offset="80%" stop-color="#e9f8f9" stop-opacity="1"></stop></linearGradient></defs><g transform="translate(900, 0)"><path d="M0 243.4C-31.6 239.9 -63.1 236.4 -93.1 224.8C-123.1 213.3 -151.6 193.6 -168.3 168.3C-185 143 -189.9 112 -200.5 83C-211 54.1 -227.2 27 -243.4 0L0 0Z" fill="#a5d5e3"></path><path d="M0 162.2C-21 159.9 -42.1 157.6 -62.1 149.9C-82.1 142.2 -101.1 129.1 -112.2 112.2C-123.3 95.3 -126.6 74.7 -133.7 55.4C-140.7 36 -151.5 18 -162.2 0L0 0Z" fill="#3886c8"></path><path d="M0 81.1C-10.5 80 -21 78.8 -31 74.9C-41 71.1 -50.5 64.5 -56.1 56.1C-61.7 47.7 -63.3 37.3 -66.8 27.7C-70.3 18 -75.7 9 -81.1 0L0 0Z" fill="#345ab1"></path></g><g transform="translate(0, 600)"><path d="M0 -243.4C32 -240.8 64 -238.2 93.1 -224.8C122.2 -211.5 148.4 -187.3 159.8 -159.8C171.2 -132.3 167.8 -101.4 179.2 -74.2C190.7 -47 217 -23.5 243.4 0L0 0Z" fill="#a5d5e3"></path><path d="M0 -162.2C21.3 -160.5 42.7 -158.8 62.1 -149.9C81.5 -141 98.9 -124.9 106.5 -106.5C114.1 -88.2 111.8 -67.6 119.5 -49.5C127.1 -31.4 144.7 -15.7 162.2 0L0 0Z" fill="#3886c8"></path><path d="M0 -81.1C10.7 -80.3 21.3 -79.4 31 -74.9C40.7 -70.5 49.5 -62.4 53.3 -53.3C57.1 -44.1 55.9 -33.8 59.7 -24.7C63.6 -15.7 72.3 -7.8 81.1 0L0 0Z" fill="#345ab1"></path></g></svg>